<?xml version="1.0" encoding="UTF-8"?>
<svg xmlns="http://www.w3.org/2000/svg" xmlns:xlink="http://www.w3.org/1999/xlink" width="500" zoomAndPan="magnify" viewBox="0 0 375 374.999991" height="500" preserveAspectRatio="xMidYMid meet" version="1.0">
  <defs>
    <g></g>
    <clipPath id="c99e82339b">
      <path d="M 44.3125 157.285156 L 105.820312 157.285156 L 105.820312 218.792969 L 44.3125 218.792969 Z M 44.3125 157.285156 " clip-rule="nonzero"></path>
    </clipPath>
    <clipPath id="8db2bbd646">
      <path d="M 75.066406 157.285156 C 58.082031 157.285156 44.3125 171.054688 44.3125 188.039062 C 44.3125 205.023438 58.082031 218.792969 75.066406 218.792969 C 92.050781 218.792969 105.820312 205.023438 105.820312 188.039062 C 105.820312 171.054688 92.050781 157.285156 75.066406 157.285156 Z M 75.066406 157.285156 " clip-rule="nonzero"></path>
    </clipPath>
    <clipPath id="c2c9cf491f">
      <path d="M 47.761719 157.285156 L 102.511719 157.285156 L 102.511719 209.785156 L 47.761719 209.785156 Z M 47.761719 157.285156 " clip-rule="nonzero"></path>
    </clipPath>
    <clipPath id="2f1f3216da">
      <path d="M 37.5 149.792969 L 113 149.792969 L 113 225.542969 L 37.5 225.542969 Z M 37.5 149.792969 " clip-rule="nonzero"></path>
    </clipPath>
  </defs>
  <g clip-path="url(#c99e82339b)">
    <g clip-path="url(#8db2bbd646)">
      <path fill="#000000" d="M 44.3125 157.285156 L 105.820312 157.285156 L 105.820312 218.792969 L 44.3125 218.792969 Z M 44.3125 157.285156 " fill-opacity="1" fill-rule="nonzero"></path>
    </g>
  </g>
  <g clip-path="url(#c2c9cf491f)">
    <path fill="#ffffff" d="M 75.207031 157.464844 L 83.644531 174.679688 L 102.511719 177.441406 L 88.855469 190.851562 L 92.089844 209.773438 L 75.207031 200.839844 L 58.316406 209.773438 L 61.539062 190.851562 L 47.894531 177.441406 L 66.761719 174.679688 Z M 75.207031 157.464844 " fill-opacity="1" fill-rule="nonzero"></path>
    <path fill="#ffffff" d="M 75.078125 157.300781 L 83.523438 174.515625 L 102.390625 177.277344 L 88.734375 190.6875 L 91.957031 209.609375 L 75.078125 200.675781 L 58.195312 209.609375 L 61.417969 190.6875 L 47.761719 177.277344 L 66.632812 174.515625 Z M 75.078125 157.300781 " fill-opacity="1" fill-rule="nonzero"></path>
    <path fill="#ffffff" d="M 75.078125 157.300781 L 83.523438 174.515625 L 102.390625 177.277344 L 88.734375 190.6875 L 91.957031 209.609375 L 75.078125 200.675781 L 58.195312 209.609375 L 61.417969 190.6875 L 47.761719 177.277344 L 66.632812 174.515625 Z M 75.078125 157.300781 " fill-opacity="1" fill-rule="nonzero"></path>
    <path fill="#ffffff" d="M 75.078125 157.300781 L 83.523438 174.515625 L 102.390625 177.277344 L 88.734375 190.6875 L 91.957031 209.609375 L 75.078125 200.675781 L 58.195312 209.609375 L 61.417969 190.6875 L 47.761719 177.277344 L 66.632812 174.515625 Z M 75.078125 157.300781 " fill-opacity="1" fill-rule="nonzero"></path>
  </g>
  <g clip-path="url(#2f1f3216da)">
    <path fill="#d11d4d" d="M 75.203125 149.792969 C 54.371094 149.792969 37.5 166.664062 37.5 187.496094 C 37.5 208.328125 54.371094 225.203125 75.203125 225.203125 C 96.039062 225.203125 112.910156 208.328125 112.910156 187.496094 C 112.910156 166.664062 96.039062 149.792969 75.203125 149.792969 Z M 75.203125 217.660156 C 58.539062 217.660156 45.042969 204.164062 45.042969 187.496094 C 45.042969 170.832031 58.539062 157.332031 75.203125 157.332031 C 91.871094 157.332031 105.367188 170.832031 105.367188 187.496094 C 105.367188 204.164062 91.871094 217.660156 75.203125 217.660156 Z M 75.203125 217.660156 " fill-opacity="1" fill-rule="nonzero"></path>
  </g>
  <g fill="#d11d4d" fill-opacity="1">
    <g transform="translate(187.499992, 199.411448)">
      <g>
        <path d="M 17.984375 0 L 10.90625 -8.828125 L 9.53125 -8.828125 L 9.53125 0 L 3.046875 0 L 3.046875 -25.96875 L 12.53125 -25.96875 C 14.582031 -25.96875 16.375 -25.609375 17.90625 -24.890625 C 19.445312 -24.171875 20.632812 -23.15625 21.46875 -21.84375 C 22.3125 -20.53125 22.734375 -19.023438 22.734375 -17.328125 C 22.734375 -15.617188 22.3125 -14.117188 21.46875 -12.828125 C 20.632812 -11.546875 19.4375 -10.554688 17.875 -9.859375 L 25.859375 0 Z M 9.53125 -20.515625 L 9.53125 -14.171875 L 12.234375 -14.171875 C 13.472656 -14.171875 14.429688 -14.46875 15.109375 -15.0625 C 15.796875 -15.65625 16.140625 -16.410156 16.140625 -17.328125 C 16.140625 -18.265625 15.796875 -19.03125 15.109375 -19.625 C 14.429688 -20.21875 13.472656 -20.515625 12.234375 -20.515625 Z M 9.53125 -20.515625 "></path>
      </g>
    </g>
  </g>
  <g fill="#d11d4d" fill-opacity="1">
    <g transform="translate(211.648183, 199.411448)">
      <g>
        <path d="M 9.53125 -10.578125 L 9.53125 -5.53125 L 20.171875 -5.53125 L 20.171875 0 L 3.046875 0 L 3.046875 -25.96875 L 19.8125 -25.96875 L 19.8125 -20.4375 L 9.53125 -20.4375 L 9.53125 -15.953125 L 19.4375 -15.953125 L 19.4375 -10.578125 Z M 9.53125 -10.578125 "></path>
      </g>
    </g>
  </g>
  <g fill="#d11d4d" fill-opacity="1">
    <g transform="translate(232.643342, 199.411448)">
      <g>
        <path d="M 13.09375 -8.75 L 18.875 -25.96875 L 25.703125 -25.96875 L 16.0625 0 L 10.015625 0 L 0.375 -25.96875 L 7.265625 -25.96875 Z M 13.09375 -8.75 "></path>
      </g>
    </g>
  </g>
  <g fill="#d11d4d" fill-opacity="1">
    <g transform="translate(257.607608, 199.411448)">
      <g>
        <path d="M 9.71875 0 L 3.234375 0 L 3.234375 -25.96875 L 9.71875 -25.96875 Z M 9.71875 0 "></path>
      </g>
    </g>
  </g>
  <g fill="#d11d4d" fill-opacity="1">
    <g transform="translate(269.40333, 199.411448)">
      <g>
        <path d="M 9.53125 -10.578125 L 9.53125 -5.53125 L 20.171875 -5.53125 L 20.171875 0 L 3.046875 0 L 3.046875 -25.96875 L 19.8125 -25.96875 L 19.8125 -20.4375 L 9.53125 -20.4375 L 9.53125 -15.953125 L 19.4375 -15.953125 L 19.4375 -10.578125 Z M 9.53125 -10.578125 "></path>
      </g>
    </g>
  </g>
  <g fill="#d11d4d" fill-opacity="1">
    <g transform="translate(290.39849, 199.411448)">
      <g>
        <path d="M 27.234375 -9.859375 L 31.828125 -25.96875 L 38.65625 -25.96875 L 30.1875 0 L 24.5625 0 L 19.546875 -16.65625 L 14.5 0 L 8.90625 0 L 0.4375 -25.96875 L 7.3125 -25.96875 L 11.90625 -9.9375 L 16.875 -25.96875 L 22.25 -25.96875 Z M 27.234375 -9.859375 "></path>
      </g>
    </g>
  </g>
  <g fill="#d11d4d" fill-opacity="1">
    <g transform="translate(328.382933, 199.411448)">
      <g>
        <path d="M 11.71875 0.484375 C 8.625 0.484375 6.140625 -0.300781 4.265625 -1.875 C 2.390625 -3.445312 1.425781 -5.65625 1.375 -8.5 L 7.796875 -8.5 C 7.835938 -7.3125 8.1875 -6.390625 8.84375 -5.734375 C 9.5 -5.078125 10.445312 -4.75 11.6875 -4.75 C 12.84375 -4.75 13.71875 -4.96875 14.3125 -5.40625 C 14.90625 -5.851562 15.203125 -6.460938 15.203125 -7.234375 C 15.203125 -8.078125 14.816406 -8.722656 14.046875 -9.171875 C 13.285156 -9.628906 12.078125 -10.117188 10.421875 -10.640625 C 8.691406 -11.191406 7.265625 -11.738281 6.140625 -12.28125 C 5.015625 -12.820312 4.050781 -13.632812 3.25 -14.71875 C 2.445312 -15.8125 2.046875 -17.25 2.046875 -19.03125 C 2.046875 -20.46875 2.445312 -21.75 3.25 -22.875 C 4.050781 -24 5.164062 -24.875 6.59375 -25.5 C 8.03125 -26.132812 9.675781 -26.453125 11.53125 -26.453125 C 13.21875 -26.453125 14.789062 -26.140625 16.25 -25.515625 C 17.707031 -24.898438 18.894531 -23.953125 19.8125 -22.671875 C 20.726562 -21.398438 21.195312 -19.835938 21.21875 -17.984375 L 14.90625 -17.984375 C 14.882812 -18.898438 14.59375 -19.664062 14.03125 -20.28125 C 13.476562 -20.90625 12.644531 -21.21875 11.53125 -21.21875 C 10.570312 -21.21875 9.828125 -21.003906 9.296875 -20.578125 C 8.765625 -20.160156 8.5 -19.59375 8.5 -18.875 C 8.5 -18.039062 8.878906 -17.398438 9.640625 -16.953125 C 10.410156 -16.503906 11.613281 -16.019531 13.25 -15.5 C 14.976562 -14.976562 16.40625 -14.445312 17.53125 -13.90625 C 18.65625 -13.363281 19.625 -12.539062 20.4375 -11.4375 C 21.25 -10.34375 21.65625 -8.890625 21.65625 -7.078125 C 21.65625 -5.691406 21.265625 -4.425781 20.484375 -3.28125 C 19.710938 -2.132812 18.578125 -1.21875 17.078125 -0.53125 C 15.585938 0.144531 13.800781 0.484375 11.71875 0.484375 Z M 11.71875 0.484375 "></path>
      </g>
    </g>
  </g>
  <g fill="#ffae00" fill-opacity="1">
    <g transform="translate(115.936689, 199.327413)">
      <g>
        <path d="M 26.8125 0 L 20.109375 0 L 18.328125 -5.078125 L 8.609375 -5.078125 L 6.859375 0 L 0.265625 0 L 10.125 -25.96875 L 16.921875 -25.96875 Z M 10.3125 -10.5 L 16.6875 -10.5 L 13.5 -19.515625 Z M 10.3125 -10.5 "></path>
      </g>
    </g>
  </g>
  <g fill="#ffae00" fill-opacity="1">
    <g transform="translate(141.862127, 199.327413)">
      <g>
        <path d="M 19.171875 0 L 3.046875 0 L 3.046875 -25.96875 L 9.53125 -25.96875 L 9.53125 -5.859375 L 19.171875 -5.859375 Z M 19.171875 0 "></path>
      </g>
    </g>
  </g>
  <g fill="#ffae00" fill-opacity="1">
    <g transform="translate(160.814692, 199.327413)">
      <g>
        <path d="M 19.171875 0 L 3.046875 0 L 3.046875 -25.96875 L 9.53125 -25.96875 L 9.53125 -5.859375 L 19.171875 -5.859375 Z M 19.171875 0 "></path>
      </g>
    </g>
  </g>
</svg>
